<?xml version="1.0" encoding="UTF-8" standalone="no"?>
<!-- Created with Inkscape (http://www.inkscape.org/) -->

<svg
   width="99.52623mm"
   height="22.998638mm"
   viewBox="0 0 99.52623 22.998638"
   version="1.1"
   id="svg2066"
   inkscape:version="1.1.1 (3bf5ae0d25, 2021-09-20)"
   sodipodi:docname="comveray-logo.svg"
   xmlns:inkscape="http://www.inkscape.org/namespaces/inkscape"
   xmlns:sodipodi="http://sodipodi.sourceforge.net/DTD/sodipodi-0.dtd"
   xmlns="http://www.w3.org/2000/svg"
   xmlns:svg="http://www.w3.org/2000/svg">
  <sodipodi:namedview
     id="namedview2068"
     pagecolor="#ffffff"
     bordercolor="#666666"
     borderopacity="1.0"
     inkscape:pageshadow="2"
     inkscape:pageopacity="0.0"
     inkscape:pagecheckerboard="0"
     inkscape:document-units="mm"
     showgrid="false"
     inkscape:zoom="2.0384476"
     inkscape:cx="169.73701"
     inkscape:cy="82.660943"
     inkscape:window-width="1920"
     inkscape:window-height="1017"
     inkscape:window-x="1672"
     inkscape:window-y="-8"
     inkscape:window-maximized="1"
     inkscape:current-layer="layer1" />
  <defs
     id="defs2063" />
  <g
     inkscape:label="Layer 1"
     inkscape:groupmode="layer"
     id="layer1"
     transform="translate(-9.0524263,-96.45363)">
    <path
       style="fill:#000000;stroke-width:0.264583"
       d="m 16.9911,118.91325 c -3.175021,-1.09178 -5.322505,-2.97223 -6.764301,-5.92316 -3.7196349,-7.613 1.850966,-16.53646 10.323121,-16.53646 5.722493,0 10.469004,4.14368 11.405003,9.95651 0.905193,5.62151 -3.119474,11.47466 -8.788744,12.78164 -1.87732,0.43279 -4.443048,0.31706 -6.175079,-0.27853 z m 7.916395,-2.3472 c 3.799864,-1.92871 5.894031,-6.03726 5.158043,-10.11957 -0.599632,-3.32599 -2.537547,-5.88028 -5.546868,-7.311112 -1.255792,-0.597088 -1.799653,-0.691258 -3.96875,-0.687194 -2.184731,0.0041 -2.705195,0.09795 -3.978611,0.717462 -2.088494,1.016044 -3.47178,2.300484 -4.445987,4.128284 -1.133272,2.12624 -1.475078,4.05808 -1.091891,6.17123 0.928758,5.12179 4.839957,8.29329 9.962271,8.07818 1.826697,-0.0767 2.438827,-0.22964 3.911793,-0.97728 z m -5.177397,-3.36076 c -0.01434,-0.11836 -0.04411,-0.51286 -0.06615,-0.87666 -0.03584,-0.5916 -0.178543,-0.67543 -1.351092,-0.79375 -1.250962,-0.12623 -1.311009,-0.16865 -1.310804,-0.92604 2.09e-4,-0.76999 0.04144,-0.79615 1.377165,-0.87373 0.963524,-0.056 1.376949,-0.19083 1.376949,-0.44919 0,-0.25836 -0.413425,-0.39323 -1.376949,-0.44919 -1.335779,-0.0776 -1.37695,-0.10371 -1.376966,-0.87373 -1.4e-5,-0.71771 0.09526,-0.80642 0.994567,-0.92604 l 0.994582,-0.13229 -1.205117,-1.17957 c -1.356373,-1.32761 -1.429962,-1.57764 -0.667443,-2.26771 0.528364,-0.47816 0.562726,-0.46185 1.984375,0.94214 l 1.446701,1.42873 1.449507,-1.4315 1.449507,-1.4315 0.673156,0.6324 0.673157,0.63239 -1.386021,1.40346 -1.386021,1.40345 h 1.115441 c 1.098401,0 1.115441,0.0142 1.115441,0.92604 v 0.92605 H 22.93117 c -0.977246,0 -1.322916,0.0999 -1.322916,0.38237 0,0.26847 0.374406,0.40641 1.25677,0.46303 1.205046,0.0773 1.260184,0.11603 1.339681,0.94053 l 0.08291,0.8599 h -1.322916 c -1.299126,0 -1.324408,0.0155 -1.405827,0.8599 -0.0729,0.7561 -0.186698,0.8699 -0.942805,0.9428 -0.472943,0.0456 -0.871628,-0.0139 -0.885968,-0.13229 z m 19.737531,2.04592 c -0.291042,-0.12038 -0.826823,-0.5389 -1.190625,-0.93003 -0.657829,-0.70724 -0.661874,-0.74262 -0.737071,-6.44508 -0.08553,-6.48592 0.06708,-7.17139 1.795404,-8.064595 1.03333,-0.53403 2.975277,-0.468984 3.970552,0.132995 0.890524,0.53862 1.585698,2.14179 1.585698,3.65684 v 1.34795 l -1.256771,-0.0806 -1.256771,-0.0807 -0.08434,-1.18543 c -0.09396,-1.32072 -0.413562,-1.85727 -1.106289,-1.85727 -0.916421,0 -1.038233,0.61491 -1.115025,5.62866 -0.06613,4.31732 -0.0204,4.99097 0.365027,5.37639 0.300193,0.3002 0.658585,0.38593 1.124479,0.269 0.619001,-0.15536 0.683853,-0.29456 0.683853,-1.46787 0,-1.92884 0.14216,-2.13327 1.483516,-2.13327 h 1.162317 v 1.596 c 0,2.01566 -0.520597,3.27238 -1.637723,3.95347 -0.910752,0.55527 -2.78919,0.69593 -3.786235,0.28353 z m 8.70967,-0.004 c -0.302911,-0.12254 -0.868458,-0.60038 -1.256771,-1.06187 l -0.706024,-0.83906 v -5.91398 -5.91399 l 0.869897,-0.92236 c 1.45882,-1.546799 3.938373,-1.627834 5.557948,-0.18164 l 0.848196,0.75739 0.0853,5.74198 c 0.09307,6.26489 0.0011,6.81327 -1.330542,7.93377 -0.618815,0.5207 -1.062212,0.65264 -2.148496,0.63933 -0.752819,-0.009 -1.616596,-0.11703 -1.919508,-0.23957 z m 2.734609,-2.91866 c 0.499801,-0.95819 0.351113,-9.52464 -0.176334,-10.15923 -0.509138,-0.61256 -1.391227,-0.43263 -1.812184,0.36965 -0.526293,1.00303 -0.351295,9.97311 0.20153,10.33009 0.634932,0.40999 1.414132,0.1743 1.786988,-0.54051 z m 4.629158,2.99977 c -0.254063,-0.10252 -0.330729,-1.93765 -0.330729,-7.91661 v -7.78316 h 1.704176 c 0.937297,0 1.783273,0.12798 1.879947,0.284401 0.154725,0.250349 0.587573,3.194099 1.066956,7.256219 0.183205,1.55243 0.336113,2.11247 0.525161,1.92342 0.113088,-0.11309 1.434176,-8.62921 1.437354,-9.265603 5.29e-4,-0.10914 0.8362,-0.198437 1.85701,-0.198437 h 1.85602 l -0.07008,7.86782 c -0.06575,7.38158 -0.09999,7.87358 -0.554029,7.96093 -0.266174,0.0512 -0.77219,0.0208 -1.12448,-0.0677 l -0.640532,-0.16077 -0.008,-4.69131 c -0.0051,-2.98953 -0.09648,-4.54014 -0.251825,-4.27458 -0.134078,0.2292 -0.493787,2.1342 -0.799354,4.23333 -0.770385,5.29226 -0.66508,5.00723 -1.849916,5.00723 h -0.999691 l -0.286679,-1.65365 c -0.157673,-0.9095 -0.489508,-2.9931 -0.737407,-4.6302 -0.247902,-1.63711 -0.56456,-2.97657 -0.703683,-2.97657 -0.155528,0 -0.206775,1.68752 -0.133057,4.38134 0.108964,3.9818 0.07749,4.40404 -0.34512,4.63021 -0.496911,0.26594 -0.958916,0.28874 -1.491993,0.0736 z m 13.324814,-0.28779 c -0.07615,-0.25466 -0.32235,-1.77271 -0.547119,-3.37344 -0.224769,-1.60073 -0.528812,-3.68432 -0.675651,-4.63021 -0.428172,-2.75812 -1.045572,-6.99415 -1.050843,-7.209893 -0.0027,-0.10914 0.574281,-0.198437 1.282108,-0.198437 h 1.286952 l 0.176127,1.25677 c 0.09687,0.69122 0.35468,2.68552 0.572911,4.43177 0.218233,1.74625 0.455083,3.44289 0.526338,3.77031 0.197228,0.90631 0.648634,0.70996 0.648634,-0.28213 0,-0.4826 0.111003,-1.5244 0.246676,-2.31511 0.135673,-0.79071 0.398114,-2.65804 0.583203,-4.14963 l 0.336529,-2.71198 h 1.174279 1.174279 l -0.172397,1.6494 c -0.09482,0.90718 -0.290023,2.30616 -0.43379,3.10886 -0.143764,0.8027 -0.44377,2.7096 -0.666676,4.23757 -0.74354,5.09677 -1.012537,6.48078 -1.297691,6.67668 -0.155623,0.10691 -0.90001,0.19621 -1.654186,0.19844 -1.07901,0.003 -1.400738,-0.0946 -1.509683,-0.45897 z m 6.992072,0.0783 c -0.255797,-0.30821 -0.304014,-2.09783 -0.209524,-7.77628 0.06751,-4.05676 0.187804,-7.481762 0.267328,-7.611122 0.07952,-0.12936 1.61482,-0.175669 3.411772,-0.102908 l 3.267184,0.132291 0.08159,0.983269 c 0.09404,1.13332 -0.07577,1.21612 -2.72742,1.32988 l -1.5875,0.0681 v 1.85208 1.85209 l 1.653645,0.0788 1.653646,0.0788 v 1.16537 1.16538 l -1.653646,0.0788 -1.653645,0.0788 -0.0764,2.15531 -0.0764,2.15531 2.19307,0.22594 2.193068,0.22594 v 1.05833 1.05834 l -3.202249,0.074 c -2.600614,0.0601 -3.264676,-0.001 -3.534511,-0.32637 z m 8.152281,-7.14072 c -0.02183,-4.15571 -0.05159,-7.70467 -0.06615,-7.88657 -0.01923,-0.240475 0.718267,-0.351357 2.702536,-0.406318 l 2.728992,-0.07559 0.909029,0.909028 c 0.892466,0.89247 0.909026,0.94983 0.909026,3.14876 0,1.86443 -0.09178,2.35642 -0.547748,2.93608 -0.545396,0.69337 -0.545523,0.69948 -0.02958,1.42475 0.432398,0.60782 0.534014,1.27585 0.613894,4.03569 l 0.09572,3.30729 h -1.190625 -1.190625 l -0.142716,-2.97376 c -0.0785,-1.63557 -0.267782,-3.09882 -0.420638,-3.25168 -0.152855,-0.15285 -0.624411,-0.30294 -1.047906,-0.33353 l -0.76999,-0.0556 -0.132292,3.3073 -0.132291,3.30729 -1.12448,0.0814 -1.124479,0.0814 z m 4.220104,-2.05251 c 0.179544,-0.17954 0.3175,-1.03957 0.3175,-1.97933 0,-1.55157 -0.04385,-1.67284 -0.660866,-1.8277 -1.237824,-0.31068 -1.455801,-0.0179 -1.455801,1.95547 0,0.99895 0.07937,1.89566 0.17639,1.99267 0.28748,0.28749 1.280536,0.20113 1.622777,-0.14111 z m 4.31931,9.33377 c -0.26134,-0.16152 -0.100166,-1.63131 0.745013,-6.794 0.593175,-3.62334 1.166916,-7.06414 1.274983,-7.64623 l 0.196484,-1.058329 1.743274,-0.07727 1.743271,-0.07727 0.447939,2.723109 c 0.246367,1.4977 0.559073,3.37794 0.694902,4.17831 0.832507,4.90546 1.047257,6.35773 1.115047,7.54062 l 0.0758,1.32292 -1.11037,0.0807 c -1.085744,0.0789 -1.116108,0.0583 -1.368981,-0.92604 -0.142237,-0.5537 -0.298484,-1.24484 -0.347218,-1.53588 -0.07143,-0.4266 -0.328218,-0.54466 -1.324726,-0.60907 l -1.236118,-0.0799 -0.174043,1.1606 c -0.09572,0.63833 -0.263683,1.30565 -0.373247,1.48292 -0.241676,0.39104 -1.639875,0.60046 -2.10203,0.31483 z m 4.611528,-6.96575 c -0.217799,-2.24272 -0.67038,-4.52542 -0.859697,-4.3361 -0.203094,0.20309 -0.811625,5.54858 -0.674344,5.9236 0.06659,0.1819 0.480902,0.33073 0.920698,0.33073 h 0.799629 z m 6.076085,6.87917 c -0.0608,-0.1819 -0.15392,-1.93807 -0.20683,-3.9026 -0.0732,-2.71802 -0.20251,-3.76163 -0.54089,-4.36563 -0.24458,-0.43656 -0.44543,-0.91919 -0.44632,-1.0725 -8e-4,-0.15331 -0.41667,-1.52253 -0.92394,-3.04271 -0.50727,-1.52017 -0.92399,-2.859474 -0.92604,-2.97622 -0.002,-0.116745 0.60322,-0.176276 1.34506,-0.132291 1.51021,0.08954 1.55476,0.155215 2.34101,3.451181 0.29113,1.22042 0.43222,1.46117 0.71754,1.22437 0.19533,-0.16211 0.35515,-0.45488 0.35515,-0.6506 0,-0.19572 0.26159,-1.19317 0.5813,-2.21656 l 0.5813,-1.86071 h 1.23203 1.23203 l -0.34245,1.25677 c -0.18834,0.69122 -0.8231,2.68552 -1.41057,4.43177 -1.01045,3.00353 -1.06845,3.34719 -1.07401,6.36323 -0.004,2.11977 -0.11228,3.29463 -0.32338,3.50573 -0.4187,0.41871 -2.04979,0.40886 -2.19099,-0.0132 z"
       id="path2101" />
  </g>
</svg>
